<?xml version="1.0" encoding="UTF-8"?>
<svg width="679px" height="679px" viewBox="0 0 679 679" version="1.1" xmlns="http://www.w3.org/2000/svg" xmlns:xlink="http://www.w3.org/1999/xlink">
    <title>BotonClubMondo (1)</title>
    <defs>
        <polygon id="path-1" points="0 0 1920 0 1920 1080 0 1080"></polygon>
        <polygon id="path-3" points="0 0 1920 0 1920 1080 0 1080"></polygon>
        <polygon id="path-5" points="0 0 1920 0 1920 1080 0 1080"></polygon>
        <polygon id="path-7" points="0 0 1920 0 1920 1080 0 1080"></polygon>
        <polygon id="path-9" points="0 0 1920 0 1920 1080 0 1080"></polygon>
    </defs>
    <g id="Page-1" stroke="none" stroke-width="1" fill="none" fill-rule="evenodd">
        <g id="BotonClubMondo-(1)" transform="translate(-620.000000, -191.000000)">
            <circle id="Oval" fill="#C20E1A" fill-rule="nonzero" cx="959.077" cy="530.077" r="339.077"></circle>
            <g id="Clipped">
                <mask id="mask-2" fill="white">
                    <use xlink:href="#path-1"></use>
                </mask>
                <g id="a"></g>
                <path d="M968.099,670.721 C969.62,669.605 971.291,668.64 972.887,668.069 C975.037,667.238 977.319,666.854 979.836,666.854 C983.031,666.854 985.671,667.366 987.649,668.451 C989.636,669.474 990.811,670.752 991.177,672.285 C991.552,673.755 991.505,676.183 991.021,679.635 L988.821,695.278 C987.942,701.507 982.17,706.569 975.929,706.569 L973.72,706.569 L977.571,679.16 C978.153,675.017 975.285,674.203 973.112,674.203 C969.74,674.203 967.289,676.939 966.897,679.293 L963.06,706.569 L949.543,706.569 L955.016,667.622 L969.212,667.622 L968.099,670.721 L968.099,670.721 Z M848.735,670.721 C850.257,669.605 851.928,668.64 853.524,668.069 C855.674,667.238 857.955,666.854 860.473,666.854 C863.669,666.854 866.308,667.366 868.286,668.451 C869.985,669.325 871.091,670.388 871.604,671.636 C873.467,670.193 875.646,668.805 877.699,668.07 C879.85,667.239 882.131,666.855 884.649,666.855 C887.845,666.855 890.485,667.367 892.462,668.452 C894.449,669.475 895.625,670.753 895.99,672.286 C896.365,673.756 896.319,676.184 895.835,679.636 L893.634,695.279 C892.756,701.508 886.984,706.57 880.742,706.57 L878.533,706.57 L882.384,679.161 C882.967,675.018 880.098,674.204 877.926,674.204 C874.553,674.204 872.102,676.94 871.711,679.294 L867.875,706.57 L854.357,706.57 L858.209,679.161 C858.791,675.018 855.922,674.204 853.75,674.204 C850.377,674.204 847.926,676.94 847.535,679.294 L843.697,706.57 L830.18,706.57 L835.654,667.623 L849.849,667.623 L848.735,670.721 L848.735,670.721 Z" id="Shape" fill="#FFFFFF" fill-rule="nonzero" mask="url(#mask-2)"></path>
            </g>
            <g id="Clipped">
                <mask id="mask-4" fill="white">
                    <use xlink:href="#path-3"></use>
                </mask>
                <g id="a"></g>
                <path d="M917.924,678.598 C918.396,675.235 921.264,672.505 925.583,672.505 C929.903,672.505 932.004,675.234 931.531,678.598 L929.143,695.588 C928.67,698.953 925.803,701.68 921.483,701.68 C917.164,701.68 915.063,698.953 915.536,695.588 L917.924,678.598 Z M945.497,682.607 C947.403,669.041 936.747,666.753 926.392,666.753 C916.037,666.753 904.737,669.041 902.831,682.607 L901.57,691.58 C899.664,705.146 910.32,707.434 920.675,707.434 C931.03,707.434 942.329,705.147 944.236,691.58 L945.497,682.607 Z" id="Shape" fill="#FFFFFF" mask="url(#mask-4)"></path>
            </g>
            <g id="Clipped">
                <mask id="mask-6" fill="white">
                    <use xlink:href="#path-5"></use>
                </mask>
                <g id="a"></g>
                <path d="M1020.372,673.141 L1012.864,673.141 L1008.943,701.045 L1016.451,701.045 C1020.597,701.045 1023.307,698.428 1023.762,695.198 L1026.04,678.989 C1026.494,675.76 1024.518,673.141 1020.372,673.141 M1000.124,667.62 L1021.147,667.62 C1031.086,667.62 1041.314,669.814 1039.484,682.838 L1038.289,691.349 C1036.459,704.371 1025.613,706.567 1015.674,706.567 L994.65,706.567 L1000.124,667.62 L1000.124,667.62 Z" id="Shape" fill="#FFFFFF" fill-rule="nonzero" mask="url(#mask-6)"></path>
            </g>
            <g id="Clipped">
                <mask id="mask-8" fill="white">
                    <use xlink:href="#path-7"></use>
                </mask>
                <g id="a"></g>
                <path d="M1062.023,678.598 C1062.496,675.235 1065.364,672.505 1069.683,672.505 C1074.002,672.505 1076.103,675.234 1075.63,678.598 L1073.242,695.588 C1072.769,698.953 1069.902,701.68 1065.582,701.68 C1061.263,701.68 1059.161,698.953 1059.636,695.588 L1062.023,678.598 Z M1089.597,682.607 C1091.503,669.041 1080.847,666.753 1070.493,666.753 C1060.138,666.753 1048.838,669.041 1046.931,682.607 L1045.67,691.58 C1043.764,705.146 1054.419,707.434 1064.775,707.434 C1075.129,707.434 1086.429,705.147 1088.336,691.58 L1089.597,682.607 Z" id="Shape" fill="#FFFFFF" mask="url(#mask-8)"></path>
            </g>
            <g id="Clipped">
                <mask id="mask-10" fill="white">
                    <use xlink:href="#path-9"></use>
                </mask>
                <g id="a"></g>
                <path d="M847.702,437.257 L847.702,427.45 C847.702,395.544 864.979,372.567 908.715,372.567 C943.891,372.567 963.503,386.323 968.328,408.717 C968.795,410.912 969.107,413.107 969.263,415.448 C969.575,419.547 968.018,421.45 963.503,421.45 L957.744,421.45 C952.764,421.45 951.207,420.279 950.43,415.742 C950.118,413.693 949.651,411.789 949.028,410.034 C944.203,396.714 930.973,390.129 908.248,390.129 C879.61,390.129 866.379,399.935 866.379,429.647 L866.379,435.939 C866.379,464.04 878.988,475.748 908.248,475.748 C931.596,475.748 945.137,469.748 949.494,454.527 C949.961,452.916 950.273,451.161 950.585,449.257 C951.207,444.721 952.764,443.403 957.744,443.403 L963.348,443.403 C968.018,443.403 969.575,445.159 969.263,449.404 C969.108,451.6 968.795,453.65 968.485,455.698 C964.438,481.896 946.227,493.312 908.716,493.312 C865.602,493.312 847.702,478.822 847.702,437.257 M998.367,492.581 C993.697,492.581 991.984,490.971 991.984,486.58 L991.984,379.299 C991.984,374.908 993.697,373.299 998.367,373.299 L1004.282,373.299 C1008.95,373.299 1010.662,374.908 1010.662,379.299 L1010.662,475.018 L1065.762,475.018 C1070.43,475.018 1072.143,476.628 1072.143,481.018 L1072.143,486.58 C1072.143,490.971 1070.43,492.581 1065.762,492.581 L998.367,492.581 L998.367,492.581 Z M900.778,631.972 C863.424,631.972 847.702,616.312 847.702,577.235 L847.702,517.813 C847.702,513.421 849.414,511.811 854.084,511.811 L859.999,511.811 C864.668,511.811 866.38,513.421 866.38,517.813 L866.38,578.112 C866.38,603.725 876.809,614.409 900.466,614.409 C923.969,614.409 935.332,604.31 935.332,578.112 L935.332,517.813 C935.332,513.421 937.044,511.811 941.713,511.811 L947.628,511.811 C952.297,511.811 954.009,513.421 954.009,517.813 L954.009,577.235 C954.009,615.285 938.6,631.972 900.778,631.972 M982.801,631.24 C978.131,631.24 976.419,629.629 976.419,625.239 L976.419,517.958 C976.419,513.567 978.131,511.957 982.801,511.957 L1026.226,511.957 C1051.597,511.957 1062.958,522.203 1062.958,537.716 L1062.958,545.913 C1062.958,558.353 1054.397,566.402 1035.565,566.402 C1060.934,566.402 1072.297,576.355 1072.297,592.162 L1072.297,600.211 C1072.297,619.092 1058.134,631.24 1026.225,631.24 L982.801,631.24 L982.801,631.24 Z M995.097,529.52 L995.097,559.377 L1025.76,559.377 C1038.523,559.377 1044.281,556.011 1044.281,545.035 L1044.281,542.107 C1044.281,532.301 1038.522,529.52 1025.76,529.52 L995.097,529.52 L995.097,529.52 Z M995.097,576.94 L995.097,613.675 L1025.76,613.675 C1044.904,613.675 1053.62,609.431 1053.62,595.528 L1053.62,592.601 C1053.62,580.599 1044.903,576.94 1025.76,576.94 L995.097,576.94 L995.097,576.94 Z" id="Shape" fill="#FFFFFF" fill-rule="nonzero" mask="url(#mask-10)"></path>
            </g>
        </g>
    </g>
</svg>
